<svg width="106" height="29" viewBox="0 0 106 29" fill="none" xmlns="http://www.w3.org/2000/svg">
<path d="M12.0001 6.20843C12.0013 5.79179 11.9224 5.37912 11.7683 4.99468C11.6141 4.61023 11.3877 4.26179 11.1023 3.96983C10.817 3.67787 10.4785 3.44829 10.1067 3.2946C9.73497 3.14092 9.33745 3.06622 8.93757 3.0749C8.53769 3.08358 8.14351 3.17547 7.77821 3.34516C7.41292 3.51485 7.08389 3.75892 6.81048 4.06301C6.53706 4.3671 6.32478 4.72508 6.18613 5.11588C6.04747 5.50668 5.98523 5.92241 6.00307 6.33863C5.41528 6.49607 4.86958 6.79077 4.40731 7.20042C3.94503 7.61007 3.57831 8.12392 3.33492 8.70306C3.09152 9.2822 2.97783 9.91144 3.00246 10.5431C3.02709 11.1748 3.18939 11.7924 3.47707 12.3491C2.97125 12.7771 2.5735 13.3274 2.31841 13.9521C2.06333 14.5768 1.95863 15.257 2.01344 15.9334C2.06824 16.6099 2.28089 17.2621 2.63288 17.8334C2.98487 18.4048 3.46554 18.8779 4.03307 19.2116C3.96299 19.7764 4.00481 20.3502 4.15596 20.8975C4.30711 21.4448 4.56437 21.9541 4.91186 22.3938C5.25935 22.8335 5.68968 23.1943 6.17629 23.454C6.6629 23.7137 7.19545 23.8667 7.74105 23.9036C8.28665 23.9404 8.83372 23.8604 9.34846 23.6684C9.86321 23.4765 10.3347 23.1766 10.7338 22.7873C11.133 22.3981 11.4512 21.9278 11.669 21.4054C11.8868 20.883 11.9995 20.3196 12.0001 19.7501V6.20843Z" stroke="#5044E5" stroke-width="2" stroke-linecap="round" stroke-linejoin="round"/>
<path d="M9 14.5417C9.83956 14.234 10.5727 13.674 11.1067 12.9323C11.6407 12.1906 11.9515 11.3007 12 10.375" stroke="#5044E5" stroke-width="2" stroke-linecap="round" stroke-linejoin="round"/>
<path d="M6.00293 6.33838C6.0227 6.84227 6.15926 7.33369 6.40093 7.77067" stroke="#5044E5" stroke-width="2" stroke-linecap="round" stroke-linejoin="round"/>
<path d="M3.47705 12.35C3.65999 12.1948 3.85575 12.0568 4.06205 11.9375" stroke="#5044E5" stroke-width="2" stroke-linecap="round" stroke-linejoin="round"/>
<path d="M5.99996 19.7499C5.31079 19.7502 4.63323 19.5651 4.03296 19.2124" stroke="#5044E5" stroke-width="2" stroke-linecap="round" stroke-linejoin="round"/>
<path d="M12 14.5415H16" stroke="#5044E5" stroke-width="2" stroke-linecap="round" stroke-linejoin="round"/>
<path d="M12 19.75H18C18.5304 19.75 19.0391 19.9695 19.4142 20.3602C19.7893 20.7509 20 21.2808 20 21.8333V22.875" stroke="#5044E5" stroke-width="2" stroke-linecap="round" stroke-linejoin="round"/>
<path d="M12 9.3335H20" stroke="#5044E5" stroke-width="2" stroke-linecap="round" stroke-linejoin="round"/>
<path d="M16 9.33333V6.20833C16 5.6558 16.2107 5.12589 16.5858 4.73519C16.9609 4.34449 17.4696 4.125 18 4.125" stroke="#5044E5" stroke-width="2" stroke-linecap="round" stroke-linejoin="round"/>
<path d="M16 15.0627C16.2761 15.0627 16.5 14.8295 16.5 14.5418C16.5 14.2542 16.2761 14.021 16 14.021C15.7239 14.021 15.5 14.2542 15.5 14.5418C15.5 14.8295 15.7239 15.0627 16 15.0627Z" stroke="#5044E5" stroke-width="2" stroke-linecap="round" stroke-linejoin="round"/>
<path d="M18 4.64567C18.2761 4.64567 18.5 4.41249 18.5 4.12484C18.5 3.83719 18.2761 3.604 18 3.604C17.7239 3.604 17.5 3.83719 17.5 4.12484C17.5 4.41249 17.7239 4.64567 18 4.64567Z" stroke="#5044E5" stroke-width="2" stroke-linecap="round" stroke-linejoin="round"/>
<path d="M20 23.3957C20.2761 23.3957 20.5 23.1625 20.5 22.8748C20.5 22.5872 20.2761 22.354 20 22.354C19.7239 22.354 19.5 22.5872 19.5 22.8748C19.5 23.1625 19.7239 23.3957 20 23.3957Z" stroke="#5044E5" stroke-width="2" stroke-linecap="round" stroke-linejoin="round"/>
<path d="M20 9.85417C20.2761 9.85417 20.5 9.62098 20.5 9.33333C20.5 9.04569 20.2761 8.8125 20 8.8125C19.7239 8.8125 19.5 9.04569 19.5 9.33333C19.5 9.62098 19.7239 9.85417 20 9.85417Z" stroke="#5044E5" stroke-width="2" stroke-linecap="round" stroke-linejoin="round"/>
<path d="M25.575 21C25.575 20.7 25.6083 20.4667 25.675 20.3C25.7583 20.1333 25.8583 20.0333 25.975 20L27.675 19.525L27.275 19.95V6.075L27.65 6.525L25.575 6.025C25.575 5.775 25.6083 5.575 25.675 5.425C25.7417 5.275 25.875 5.125 26.075 4.975H36.825V8.3C36.5083 8.3 36.2667 8.26667 36.1 8.2C35.9333 8.13333 35.825 8.025 35.775 7.875L35.15 5.95L35.5 6.175L29.4 6.525L29.675 6.2V12.425L29.425 12.25H34.35L34.025 12.425L34.425 10.675C34.6083 10.675 34.7917 10.7 34.975 10.75C35.175 10.8 35.3417 10.9083 35.475 11.075V14.725C35.3417 14.875 35.175 14.975 34.975 15.025C34.7917 15.075 34.6083 15.1 34.425 15.1L34 13.275L34.35 13.5H29.425L29.675 13.275V19.625L29.425 19.35L36.125 19.8L35.825 20.15L36.525 17.125C36.7583 17.125 36.9583 17.1583 37.125 17.225C37.2917 17.2917 37.4417 17.3917 37.575 17.525V21H25.575ZM45.2373 21.3C44.1873 21.3 43.2623 21.075 42.4623 20.625C41.679 20.175 41.0706 19.5417 40.6373 18.725C40.204 17.8917 39.9873 16.9167 39.9873 15.8C39.9873 14.55 40.2373 13.45 40.7373 12.5C41.2373 11.55 41.929 10.8083 42.8123 10.275C43.7123 9.725 44.7206 9.45 45.8373 9.45C46.604 9.45 47.304 9.575 47.9373 9.825C48.5873 10.075 49.0956 10.4167 49.4623 10.85C49.8456 11.2667 50.0373 11.7333 50.0373 12.25C50.0373 12.6 49.929 12.8833 49.7123 13.1C49.4956 13.3 49.204 13.4 48.8373 13.4C48.6706 13.4 48.5123 13.375 48.3623 13.325C48.2123 13.275 48.0623 13.2167 47.9123 13.15C47.9123 12.25 47.7123 11.5667 47.3123 11.1C46.929 10.6333 46.3623 10.4 45.6123 10.4C44.6123 10.4 43.8456 10.8083 43.3123 11.625C42.779 12.4417 42.5123 13.6083 42.5123 15.125C42.5123 16.725 42.8123 17.9333 43.4123 18.75C44.029 19.5667 44.9456 19.975 46.1623 19.975C46.8123 19.975 47.4456 19.85 48.0623 19.6C48.679 19.3333 49.254 18.95 49.7873 18.45L50.1373 19.125C49.7873 19.5583 49.3456 19.9417 48.8123 20.275C48.2956 20.6083 47.729 20.8583 47.1123 21.025C46.4956 21.2083 45.8706 21.3 45.2373 21.3ZM51.8787 21C51.8787 20.4 52.012 20.0667 52.2787 20L53.7037 19.5L53.4287 19.925V3.85L53.7287 4.225L52.2787 3.925C52.012 3.875 51.8787 3.55 51.8787 2.95C52.562 2.83333 53.0787 2.75833 53.4287 2.725C53.7954 2.675 54.0954 2.65 54.3287 2.65C54.7954 2.65 55.1287 2.76667 55.3287 3C55.5454 3.21667 55.6537 3.575 55.6537 4.075V12.075L55.5037 11.925H55.8037C56.4704 11.1583 57.2287 10.5583 58.0787 10.125C58.9454 9.675 59.7787 9.45 60.5787 9.45C62.512 9.45 63.4787 10.7833 63.4787 13.45V19.8L63.2037 19.45L65.0287 19.95C65.0287 20.2167 65.0037 20.425 64.9537 20.575C64.9037 20.7083 64.7954 20.85 64.6287 21H59.8037C59.8037 20.4 59.937 20.0667 60.2037 20L61.4037 19.6L61.1537 20.025V13.575C61.1537 11.9083 60.5204 11.075 59.2537 11.075C58.8037 11.075 58.3537 11.1667 57.9037 11.35C57.4537 11.5333 57.037 11.7667 56.6537 12.05C56.287 12.3333 55.9787 12.625 55.7287 12.925L55.8037 12.675V19.9L55.5037 19.55L57.1287 19.95C57.1287 20.2167 57.0954 20.425 57.0287 20.575C56.9787 20.7083 56.862 20.85 56.6787 21H51.8787ZM71.8463 21.3C70.2463 21.3 68.988 20.8167 68.0713 19.85C67.1546 18.8833 66.6963 17.5917 66.6963 15.975C66.6963 14.7083 66.963 13.5917 67.4963 12.625C68.0296 11.6417 68.763 10.8667 69.6963 10.3C70.6296 9.73333 71.7046 9.45 72.9213 9.45C73.988 9.45 74.9046 9.675 75.6713 10.125C76.4546 10.5583 77.0546 11.1833 77.4713 12C77.9046 12.8 78.1213 13.7417 78.1213 14.825C78.1213 16.0917 77.8546 17.2083 77.3213 18.175C76.788 19.1417 76.0463 19.9083 75.0963 20.475C74.163 21.025 73.0796 21.3 71.8463 21.3ZM72.3463 20.35C73.3963 20.35 74.2046 19.9167 74.7713 19.05C75.338 18.1667 75.6213 16.9417 75.6213 15.375C75.6213 13.775 75.3546 12.55 74.8213 11.7C74.288 10.8333 73.5046 10.4 72.4713 10.4C71.438 10.4 70.6296 10.8333 70.0463 11.7C69.4796 12.5667 69.1963 13.8 69.1963 15.4C69.1963 17 69.463 18.225 69.9963 19.075C70.5463 19.925 71.3296 20.35 72.3463 20.35ZM81.3607 21.3C80.9274 21.3 80.5857 21.175 80.3357 20.925C80.1024 20.675 79.9857 20.3417 79.9857 19.925C79.9857 19.5417 80.1274 19.225 80.4107 18.975C80.6941 18.725 81.0107 18.6 81.3607 18.6C81.8107 18.6 82.1524 18.725 82.3857 18.975C82.6357 19.2083 82.7607 19.525 82.7607 19.925C82.7607 20.325 82.6191 20.6583 82.3357 20.925C82.0524 21.175 81.7274 21.3 81.3607 21.3ZM88.5398 21.3C87.7732 21.3 87.1315 21.0667 86.6148 20.6C86.0982 20.1333 85.8398 19.5167 85.8398 18.75C85.8398 17.8167 86.1398 17.05 86.7398 16.45C87.3565 15.8333 88.2732 15.3833 89.4898 15.1L92.7898 14.35L92.4648 14.65V12.85C92.4648 11.9667 92.3232 11.325 92.0398 10.925C91.7565 10.525 91.3065 10.325 90.6898 10.325C89.9565 10.325 89.3898 10.55 88.9898 11C88.6065 11.45 88.4065 12.1167 88.3898 13C88.3065 13.0833 88.1815 13.1583 88.0148 13.225C87.8482 13.275 87.6732 13.3 87.4898 13.3C87.1732 13.3 86.9232 13.2083 86.7398 13.025C86.5565 12.8417 86.4648 12.6 86.4648 12.3C86.4648 11.7333 86.6565 11.2417 87.0398 10.825C87.4398 10.4083 87.9898 10.075 88.6898 9.825C89.3898 9.575 90.1732 9.45 91.0398 9.45C92.3232 9.45 93.2732 9.76667 93.8898 10.4C94.5065 11.0167 94.8148 12 94.8148 13.35V19.05C94.8148 19.3333 94.8732 19.55 94.9898 19.7C95.1065 19.85 95.2815 19.925 95.5148 19.925C95.6815 19.925 95.8732 19.8833 96.0898 19.8C96.3065 19.7 96.4898 19.5917 96.6398 19.475L96.8148 20.225C96.5315 20.5583 96.1648 20.8167 95.7148 21C95.2648 21.2 94.8398 21.3 94.4398 21.3C93.8565 21.3 93.4065 21.125 93.0898 20.775C92.7732 20.425 92.6148 19.925 92.6148 19.275H92.4898C92.0065 19.925 91.4148 20.425 90.7148 20.775C90.0315 21.125 89.3065 21.3 88.5398 21.3ZM89.6898 19.95C90.2398 19.95 90.7815 19.8083 91.3148 19.525C91.8648 19.225 92.3148 18.8167 92.6648 18.3L92.4898 18.8V15.175L92.8398 15.225L90.0898 15.875C89.4065 16.0417 88.8815 16.3167 88.5148 16.7C88.1648 17.0833 87.9898 17.5667 87.9898 18.15C87.9898 18.7 88.1398 19.1417 88.4398 19.475C88.7398 19.7917 89.1565 19.95 89.6898 19.95ZM98.4172 21C98.4172 20.4 98.5505 20.0667 98.8172 20L100.342 19.5L100.067 19.85V10.8L100.367 11.175L98.8172 10.875C98.5505 10.8417 98.4172 10.5167 98.4172 9.9C99.0172 9.81667 99.5255 9.75 99.9422 9.7C100.359 9.65 100.784 9.625 101.217 9.625C102.034 9.625 102.442 10.1167 102.442 11.1V19.8L102.142 19.45L104.192 19.95C104.192 20.2167 104.159 20.425 104.092 20.575C104.042 20.7083 103.926 20.85 103.742 21H98.4172ZM101.167 7.25C100.717 7.25 100.367 7.125 100.117 6.875C99.8839 6.625 99.7672 6.29167 99.7672 5.875C99.7672 5.475 99.9089 5.15 100.192 4.9C100.476 4.63333 100.801 4.5 101.167 4.5C101.617 4.5 101.967 4.625 102.217 4.875C102.467 5.125 102.592 5.45833 102.592 5.875C102.592 6.275 102.442 6.60833 102.142 6.875C101.859 7.125 101.534 7.25 101.167 7.25Z" fill="#5044E5"/>
</svg>
